<svg width="10" height="6" viewBox="0 0 10 6" fill="none" xmlns="http://www.w3.org/2000/svg">
<path d="M1.12407 2.0344L1.12376 2.03407C0.947746 1.8493 0.85 1.60064 0.85 1.34271C0.85 1.08499 0.94759 0.836527 1.12334 0.651795C1.21053 0.55887 1.31481 0.48448 1.43038 0.433234C1.54614 0.381899 1.67075 0.354896 1.79696 0.353968C1.92317 0.353041 2.04814 0.378211 2.16462 0.42785C2.28107 0.47748 2.38652 0.550498 2.47507 0.642361C2.47507 0.642365 2.47508 0.64237 2.47508 0.642374L5.00392 3.26539L7.52443 0.643072C7.52452 0.642979 7.52461 0.642886 7.5247 0.642793C7.70157 0.457061 7.94326 0.350942 8.19708 0.350006C8.45103 0.34907 8.69358 0.453513 8.87175 0.638138C9.04972 0.822546 9.14912 1.07186 9.14999 1.33092C9.15087 1.58997 9.05316 1.83999 8.87648 2.02567L8.87612 2.02606L5.67975 5.36168L5.67932 5.36211C5.59094 5.4536 5.48578 5.52633 5.36968 5.57581C5.25433 5.62498 5.13063 5.65015 5.00565 5.64973C4.87973 5.65277 4.7546 5.6298 4.63753 5.58229C4.51971 5.53448 4.41262 5.46286 4.32232 5.37194L4.3223 5.37195L4.32044 5.37001L1.12407 2.0344Z" fill="#666666" stroke="#666666" stroke-width="0.3"/>
</svg>
