<svg width="16" height="29" viewBox="0 0 16 29" fill="none" xmlns="http://www.w3.org/2000/svg">
<path d="M4.24354 16.194C4.13745 16.194 1.8035 16.194 0.74262 16.194C0.176814 16.194 0 15.9786 0 15.44C0 14.0037 0 12.5315 0 11.0952C0 10.5207 0.212177 10.3412 0.74262 10.3412H4.24354C4.24354 10.2335 4.24354 8.15088 4.24354 7.18139C4.24354 5.74511 4.49108 4.38065 5.19834 3.1239C5.94096 1.83125 7.00184 0.969487 8.34563 0.46679C9.2297 0.143628 10.1138 0 11.0686 0H14.5341C15.0292 0 15.2414 0.215442 15.2414 0.718139V4.81153C15.2414 5.31423 15.0292 5.52967 14.5341 5.52967C13.5793 5.52967 12.6245 5.52967 11.6697 5.56558C10.7149 5.56558 10.2199 6.03237 10.2199 7.03776C10.1845 8.11497 10.2199 9.15627 10.2199 10.2694H14.3219C14.8878 10.2694 15.0999 10.4848 15.0999 11.0593V15.4041C15.0999 15.9786 14.9231 16.1581 14.3219 16.1581C13.0489 16.1581 10.3259 16.1581 10.2199 16.1581V27.8638C10.2199 28.4742 10.043 28.6897 9.40651 28.6897C7.92127 28.6897 6.4714 28.6897 4.98616 28.6897C4.45572 28.6897 4.24354 28.4742 4.24354 27.9356C4.24354 24.1654 4.24354 16.3018 4.24354 16.194Z" fill="#887970"/>
</svg>
