<svg width="430" height="85" viewBox="0 0 430 85" fill="none" xmlns="http://www.w3.org/2000/svg">
<path d="M15.8 6.4C23.45 6.4 27.7 12.55 27.7 22.15C27.7 31.05 24 36.8 18.35 36.8H17.9C15.65 36.8 14.5 36.25 14.5 33.3V6.4H15.8ZM18.65 39.15C30.35 39.15 37.85 32.5 37.85 21.2C37.85 11.45 31.35 4.05 17.5 4.05H1.05V6.15C4.4 6.5 4.7 6.9 4.7 9.5V33.7C4.7 36.3 4.4 36.7 1.05 37.05V39.15H18.65Z" fill="#887970"/>
<path d="M52.3031 21.3C54.6031 19.6 57.4031 19.5 60.5531 19.5H61.7531V12.55C61.2531 12.05 60.4031 11.7 59.2531 11.7C56.1031 11.7 54.3531 13.55 52.3031 19.4L52.5031 11.7H50.8031L40.3531 14.6V16L43.1031 17.7V35.25C43.1031 36.85 42.3031 37.05 40.3031 37.2V39.15H56.3031V37.2C53.4531 36.85 52.3031 36.65 52.3031 34.5V21.3Z" fill="#887970"/>
<path d="M61.0156 34.5C61.0156 37.55 63.3156 39.65 66.1656 39.65C69.0656 39.65 71.3156 37.55 71.3156 34.5C71.3156 31.45 69.0656 29.3 66.1656 29.3C63.3156 29.3 61.0156 31.45 61.0156 34.5Z" fill="#887970"/>
<path d="M116.139 32.65C116.189 33 116.239 33.7 116.239 33.85C116.239 36.3 114.989 36.85 111.439 37.05V39.15H130.289V37.05C127.489 36.9 126.439 36.45 126.089 34.05L122.939 9.8C122.939 7.15 123.839 6.3 127.139 6.15V4.05H113.539C113.439 5.2 113.089 6 112.689 7.25L106.239 26.35L99.4395 7.25C99.0395 6.15 98.7394 5.2 98.6395 4.05H84.7395V6.15C88.0395 6.3 88.9895 7.15 88.9895 9.8L85.8395 34.05C85.5395 36.3 84.4895 36.9 81.5895 37.05V39.15H93.9395V37.05C90.0895 36.8 89.1395 36.3 89.1395 33.85C89.1395 33.7 89.1895 33 89.2395 32.65L91.7395 13.6L100.989 39.15H104.789L113.739 13.6L116.139 32.65Z" fill="#887970"/>
<path d="M143.662 34.7C141.162 34.7 140.212 32.8 140.212 30.25C140.212 27.4 141.362 26.45 143.112 25.8L145.862 24.75V34C145.062 34.45 144.462 34.7 143.662 34.7ZM154.962 20.4C154.962 13.9 150.762 11.7 143.762 11.7C137.712 11.7 133.012 13.8 133.012 18.35C133.012 20.15 134.012 21.35 135.462 21.85L141.012 21.1C140.762 19.9 140.562 18.75 140.562 17.6C140.562 15.25 141.312 13.65 143.262 13.65C145.212 13.65 145.862 15.2 145.862 17.5V22.6L137.912 25.4C134.362 26.65 131.312 28.45 131.312 32.8C131.312 37.1 134.262 39.5 138.462 39.5C142.162 39.5 144.562 37.55 146.012 35.45C146.762 38.1 148.862 39.65 151.762 39.65C154.562 39.65 156.712 38.6 158.362 36.95L158.012 35.6C157.662 35.75 157.012 35.9 156.312 35.9C155.112 35.9 154.962 34.85 154.962 33.65V20.4Z" fill="#887970"/>
<path d="M171.297 21.3C173.597 19.6 176.397 19.5 179.547 19.5H180.747V12.55C180.247 12.05 179.397 11.7 178.247 11.7C175.097 11.7 173.347 13.55 171.297 19.4L171.497 11.7H169.797L159.347 14.6V16L162.097 17.7V35.25C162.097 36.85 161.297 37.05 159.297 37.2V39.15H175.297V37.2C172.447 36.85 171.297 36.65 171.297 34.5V21.3Z" fill="#887970"/>
<path d="M194.149 11.7H192.599L182.199 14.6V16L184.949 17.7V35.25C184.949 36.85 184.149 37.05 182.149 37.2V39.15H196.949V37.2C194.949 37.05 194.149 36.85 194.149 35.25V11.7ZM189.649 9.5C192.649 9.5 194.549 7.35 194.549 4.85C194.549 2.35 192.649 0.25 189.649 0.25C186.549 0.25 184.749 2.35 184.749 4.85C184.749 7.35 186.549 9.5 189.649 9.5Z" fill="#887970"/>
<path d="M212.148 11.7C204.948 11.7 198.798 17.4 198.798 26.3C198.798 34.7 204.398 39.65 211.798 39.65C218.098 39.65 221.948 36 223.298 30.5L222.348 29.9C220.448 32.4 218.098 33.55 214.898 33.55C210.348 33.55 207.048 29.85 207.148 23.9H223.098V22.65C223.098 16.3 219.398 11.7 212.148 11.7ZM211.548 13.8C214.248 13.8 215.198 16.75 215.198 21.6H207.198C207.448 16.95 208.798 13.8 211.548 13.8Z" fill="#887970"/>
<path d="M240.08 25.7V21.8H227.08V25.7H240.08Z" fill="#887970"/>
<path d="M256.346 9.5C256.346 6.9 256.646 6.5 259.946 6.15V4.05H242.896V6.15C246.246 6.5 246.546 6.9 246.546 9.5V33.7C246.546 36.3 246.246 36.7 242.896 37.05V39.15H259.946V37.05C256.646 36.7 256.346 36.3 256.346 33.7V9.5Z" fill="#887970"/>
<path d="M272.135 39.65C278.885 39.65 283.235 36.35 283.235 30.5C283.235 25.05 279.985 23 273.985 21C270.685 19.85 269.185 19 269.185 16.9C269.185 15 270.635 13.8 272.785 13.8C276.285 13.8 278.485 16.7 279.085 20H281.235V14C279.085 12.6 276.035 11.7 272.635 11.7C266.635 11.7 262.335 14.85 262.335 20.45C262.335 25.55 265.385 27.9 271.035 29.65C274.435 30.75 276.385 31.6 276.385 34.15C276.385 36.4 274.485 37.55 272.135 37.55C268.235 37.55 265.635 34.45 264.635 30.35H262.335L262.635 37.1C264.785 38.65 267.985 39.65 272.135 39.65Z" fill="#887970"/>
<path d="M297.763 34.7C295.263 34.7 294.313 32.8 294.313 30.25C294.313 27.4 295.463 26.45 297.213 25.8L299.963 24.75V34C299.163 34.45 298.563 34.7 297.763 34.7ZM309.063 20.4C309.063 13.9 304.863 11.7 297.863 11.7C291.813 11.7 287.113 13.8 287.113 18.35C287.113 20.15 288.113 21.35 289.563 21.85L295.113 21.1C294.863 19.9 294.663 18.75 294.663 17.6C294.663 15.25 295.413 13.65 297.363 13.65C299.313 13.65 299.963 15.2 299.963 17.5V22.6L292.013 25.4C288.463 26.65 285.413 28.45 285.413 32.8C285.413 37.1 288.363 39.5 292.563 39.5C296.263 39.5 298.663 37.55 300.113 35.45C300.863 38.1 302.963 39.65 305.863 39.65C308.663 39.65 310.813 38.6 312.463 36.95L312.113 35.6C311.763 35.75 311.113 35.9 310.413 35.9C309.213 35.9 309.063 34.85 309.063 33.65V20.4Z" fill="#887970"/>
<path d="M315.049 5.2V36.2C318.299 38.75 323.299 39.65 327.849 39.65C336.249 39.65 342.799 34.25 342.799 24C342.799 15.8 338.599 11.7 332.699 11.7C328.449 11.7 325.699 14.3 324.299 16.55V0H322.749L312.299 2.3V3.8L315.049 5.2ZM327.849 37.3C325.199 37.3 324.299 35.3 324.299 32.1V18C325.199 17.4 326.199 17.15 327.249 17.15C331.049 17.15 333.399 20.2 333.399 26.8C333.399 32.7 331.449 37.3 327.849 37.3Z" fill="#887970"/>
<path d="M358.73 11.7C351.53 11.7 345.38 17.4 345.38 26.3C345.38 34.7 350.98 39.65 358.38 39.65C364.68 39.65 368.53 36 369.88 30.5L368.93 29.9C367.03 32.4 364.68 33.55 361.48 33.55C356.93 33.55 353.63 29.85 353.73 23.9H369.68V22.65C369.68 16.3 365.98 11.7 358.73 11.7ZM358.13 13.8C360.83 13.8 361.78 16.75 361.78 21.6H353.78C354.03 16.95 355.38 13.8 358.13 13.8Z" fill="#887970"/>
<path d="M383.403 0H381.853L371.403 2.3V3.8L374.153 5.2V35.25C374.153 36.85 373.353 37.05 371.353 37.2V39.15H386.203V37.2C384.203 37.05 383.403 36.85 383.403 35.25V0Z" fill="#887970"/>
<path d="M399.907 0H398.357L387.907 2.3V3.8L390.657 5.2V35.25C390.657 36.85 389.857 37.05 387.857 37.2V39.15H402.707V37.2C400.707 37.05 399.907 36.85 399.907 35.25V0Z" fill="#887970"/>
<path d="M417.861 11.7C410.661 11.7 404.511 17.4 404.511 26.3C404.511 34.7 410.111 39.65 417.511 39.65C423.811 39.65 427.661 36 429.011 30.5L428.061 29.9C426.161 32.4 423.811 33.55 420.611 33.55C416.061 33.55 412.761 29.85 412.861 23.9H428.811V22.65C428.811 16.3 425.111 11.7 417.861 11.7ZM417.261 13.8C419.961 13.8 420.911 16.75 420.911 21.6H412.911C413.161 16.95 414.511 13.8 417.261 13.8Z" fill="#887970"/>
<path d="M23.3 77.9C23.55 78.65 23.7 79.25 23.7 79.75C23.7 81.45 22.3 81.95 19.8 82.05V84.15H37.45V82.05C36 81.85 35 81.5 34.5 80.2L22.05 48.95H11.6L13.3 53.1L2.9 80.2C2.35 81.55 1.35 81.85 0 82.05V84.15H10.75V82.05C8.05 81.9 6.65 81.35 6.65 79.7C6.65 79.2 6.8 78.6 7.05 77.85L8.75 73.3H21.5L23.3 77.9ZM14.95 56.75L20.4 70.6H9.75L14.95 56.75Z" fill="#887970"/>
<path d="M50.6395 45H49.0895L38.6395 47.3V48.8L41.3895 50.2V80.25C41.3895 81.85 40.5895 82.05 38.5895 82.2V84.15H53.4395V82.2C51.4395 82.05 50.6395 81.85 50.6395 80.25V45Z" fill="#887970"/>
<path d="M68.6934 70.7V66.8H55.6934V70.7H68.6934Z" fill="#887970"/>
<path d="M91.0734 77.9C91.3234 78.65 91.4734 79.25 91.4734 79.75C91.4734 81.45 90.0734 81.95 87.5734 82.05V84.15H105.223V82.05C103.773 81.85 102.773 81.5 102.273 80.2L89.8234 48.95H79.3734L81.0734 53.1L70.6734 80.2C70.1234 81.55 69.1234 81.85 67.7734 82.05V84.15H78.5234V82.05C75.8234 81.9 74.4234 81.35 74.4234 79.7C74.4234 79.2 74.5734 78.6 74.8234 77.85L76.5234 73.3H89.2734L91.0734 77.9ZM82.7234 56.75L88.1734 70.6H77.5234L82.7234 56.75Z" fill="#887970"/>
<path d="M135.116 73.45L130.966 62.3C130.766 61.7 130.666 61.25 130.666 60.85C130.666 59.6 131.666 59.4 133.766 59.15V57.2H118.966V59.15C120.316 59.55 120.866 60.05 121.266 61.15L122.966 65.6L119.216 73.95L114.466 62.3C114.216 61.65 114.066 61.1 114.066 60.7C114.066 59.8 114.766 59.4 116.416 59.15V57.2H101.416V59.15C103.166 59.7 103.466 60.05 103.966 61.15L114.466 84.35H117.416L124.416 68.9L130.316 84.35H133.316L143.166 61.15C143.616 60.05 143.966 59.7 145.716 59.15V57.2H137.066V59.15C139.016 59.4 139.916 59.7 139.916 60.75C139.916 61.15 139.816 61.7 139.566 62.3L135.116 73.45Z" fill="#887970"/>
<path d="M157.48 79.7C154.98 79.7 154.03 77.8 154.03 75.25C154.03 72.4 155.18 71.45 156.93 70.8L159.68 69.75V79C158.88 79.45 158.28 79.7 157.48 79.7ZM168.78 65.4C168.78 58.9 164.58 56.7 157.58 56.7C151.53 56.7 146.83 58.8 146.83 63.35C146.83 65.15 147.83 66.35 149.28 66.85L154.83 66.1C154.58 64.9 154.38 63.75 154.38 62.6C154.38 60.25 155.13 58.65 157.08 58.65C159.03 58.65 159.68 60.2 159.68 62.5V67.6L151.73 70.4C148.18 71.65 145.13 73.45 145.13 77.8C145.13 82.1 148.08 84.5 152.28 84.5C155.98 84.5 158.38 82.55 159.83 80.45C160.58 83.1 162.68 84.65 165.58 84.65C168.38 84.65 170.53 83.6 172.18 81.95L171.83 80.6C171.48 80.75 170.83 80.9 170.13 80.9C168.93 80.9 168.78 79.85 168.78 78.65V65.4Z" fill="#887970"/>
</svg>
