<svg width="29" height="29" viewBox="0 0 29 29" fill="none" xmlns="http://www.w3.org/2000/svg">
<path d="M21.15 0H7.85004C3.52145 0 0 3.52145 0 7.85004V21.1502C0 25.4785 3.52145 29 7.85004 29H21.1502C25.4785 29 29 25.4785 29 21.1502V7.85004C29 3.52145 25.4785 0 21.15 0V0ZM14.5 22.4295C10.1276 22.4295 6.57053 18.8724 6.57053 14.5C6.57053 10.1276 10.1276 6.57053 14.5 6.57053C18.8724 6.57053 22.4295 10.1276 22.4295 14.5C22.4295 18.8724 18.8724 22.4295 14.5 22.4295ZM22.6191 8.44056C21.327 8.44056 20.276 7.38961 20.276 6.0975C20.276 4.80538 21.327 3.75421 22.6191 3.75421C23.9112 3.75421 24.9624 4.80538 24.9624 6.0975C24.9624 7.38961 23.9112 8.44056 22.6191 8.44056Z" fill="#887970"/>
<path d="M14.4999 8.26953C11.0651 8.26953 8.27051 11.0639 8.27051 14.4989C8.27051 17.9336 11.0651 20.7283 14.4999 20.7283C17.9348 20.7283 20.7292 17.9336 20.7292 14.4989C20.7292 11.0639 17.9348 8.26953 14.4999 8.26953Z" fill="#887970"/>
<path d="M22.6195 5.45312C22.2651 5.45312 21.9766 5.74164 21.9766 6.09608C21.9766 6.45053 22.2651 6.73904 22.6195 6.73904C22.9742 6.73904 23.2627 6.45075 23.2627 6.09608C23.2627 5.74142 22.9742 5.45312 22.6195 5.45312Z" fill="#887970"/>
</svg>
