<svg width="234" height="46" viewBox="0 0 234 46" fill="none" xmlns="http://www.w3.org/2000/svg">
<path d="M8.61796 3.47785C12.7906 3.47785 15.1087 6.81985 15.1087 12.0366C15.1087 16.873 13.0906 19.9976 10.0088 19.9976H9.76339C8.53615 19.9976 7.90889 19.6988 7.90889 18.0957V3.47785H8.61796ZM10.1725 21.2747C16.5541 21.2747 20.6449 17.661 20.6449 11.5204C20.6449 6.22209 17.0996 2.20083 9.54521 2.20083H0.572713V3.342C2.39994 3.53219 2.56357 3.74956 2.56357 5.16243V18.3131C2.56357 19.7259 2.39994 19.9433 0.572713 20.1335V21.2747H10.1725Z" fill="#4E443F"/>
<path d="M28.5283 11.5747C29.7828 10.6509 31.31 10.5966 33.0281 10.5966H33.6827V6.81985C33.4099 6.54814 32.9463 6.35795 32.3191 6.35795C30.6009 6.35795 29.6464 7.36326 28.5283 10.5422L28.6373 6.35795H27.7101L22.0102 7.93385V8.69463L23.5102 9.61843V19.1553C23.5102 20.0248 23.0738 20.1335 21.983 20.215V21.2747H30.71V20.215C29.1555 20.0248 28.5283 19.9161 28.5283 18.7478V11.5747Z" fill="#4E443F"/>
<path d="M33.2804 18.7478C33.2804 20.4052 34.5349 21.5464 36.0894 21.5464C37.6712 21.5464 38.8984 20.4052 38.8984 18.7478C38.8984 17.0904 37.6712 15.922 36.0894 15.922C34.5349 15.922 33.2804 17.0904 33.2804 18.7478Z" fill="#4E443F"/>
<path d="M63.3472 17.7425C63.3745 17.9327 63.4017 18.3131 63.4017 18.3946C63.4017 19.7259 62.7199 20.0248 60.7836 20.1335V21.2747H71.0652V20.1335C69.5379 20.052 68.9652 19.8074 68.7743 18.5033L67.0562 5.32546C67.0562 3.88541 67.5471 3.42351 69.347 3.342V2.20083H61.929C61.8745 2.82575 61.6836 3.26048 61.4654 3.93975L57.9473 14.319L54.2383 3.93975C54.0201 3.342 53.8565 2.82575 53.802 2.20083H46.2203V3.342C48.0203 3.42351 48.5385 3.88541 48.5385 5.32546L46.8203 18.5033C46.6567 19.7259 46.084 20.052 44.5022 20.1335V21.2747H51.2384V20.1335C49.1385 19.9976 48.6203 19.7259 48.6203 18.3946C48.6203 18.3131 48.6476 17.9327 48.6748 17.7425L50.0384 7.39043L55.0838 21.2747H57.1564L62.0381 7.39043L63.3472 17.7425Z" fill="#4E443F"/>
<path d="M78.3589 18.8565C76.9953 18.8565 76.4772 17.824 76.4772 16.4383C76.4772 14.8895 77.1044 14.3733 78.059 14.0201L79.5589 13.4495V18.4761C79.1226 18.7206 78.7953 18.8565 78.3589 18.8565ZM84.5224 11.0856C84.5224 7.55346 82.2316 6.35795 78.4135 6.35795C75.1136 6.35795 72.55 7.49911 72.55 9.97165C72.55 10.9498 73.0954 11.6019 73.8863 11.8736L76.9135 11.466C76.7772 10.8139 76.6681 10.189 76.6681 9.56409C76.6681 8.28707 77.0772 7.4176 78.1408 7.4176C79.2044 7.4176 79.5589 8.25989 79.5589 9.50975V12.2812L75.2227 13.8027C73.2863 14.482 71.6228 15.4601 71.6228 17.824C71.6228 20.1607 73.2318 21.4649 75.5227 21.4649C77.5408 21.4649 78.8498 20.4052 79.6407 19.264C80.0498 20.7041 81.1952 21.5464 82.777 21.5464C84.3043 21.5464 85.4769 20.9758 86.3769 20.0791L86.186 19.3455C85.9951 19.4271 85.6406 19.5086 85.2588 19.5086C84.6042 19.5086 84.5224 18.938 84.5224 18.2859V11.0856Z" fill="#4E443F"/>
<path d="M93.4325 11.5747C94.687 10.6509 96.2143 10.5966 97.9324 10.5966H98.5869V6.81985C98.3142 6.54814 97.8506 6.35795 97.2233 6.35795C95.5052 6.35795 94.5507 7.36326 93.4325 10.5422L93.5416 6.35795H92.6143L86.9145 7.93385V8.69463L88.4144 9.61843V19.1553C88.4144 20.0248 87.9781 20.1335 86.8872 20.215V21.2747H95.6143V20.215C94.0598 20.0248 93.4325 19.9161 93.4325 18.7478V11.5747Z" fill="#4E443F"/>
<path d="M105.897 6.35795H105.051L99.3786 7.93385V8.69463L100.879 9.61843V19.1553C100.879 20.0248 100.442 20.1335 99.3514 20.215V21.2747H107.424V20.215C106.333 20.1335 105.897 20.0248 105.897 19.1553V6.35795ZM103.442 5.16243C105.079 5.16243 106.115 3.99409 106.115 2.63556C106.115 1.27702 105.079 0.135853 103.442 0.135853C101.751 0.135853 100.77 1.27702 100.77 2.63556C100.77 3.99409 101.751 5.16243 103.442 5.16243Z" fill="#4E443F"/>
<path d="M115.714 6.35795C111.787 6.35795 108.433 9.45541 108.433 14.2918C108.433 18.8565 111.487 21.5464 115.523 21.5464C118.96 21.5464 121.059 19.5629 121.796 16.5741L121.278 16.2481C120.241 17.6066 118.96 18.2315 117.214 18.2315C114.732 18.2315 112.932 16.2209 112.987 12.9876H121.687V12.3083C121.687 8.85765 119.669 6.35795 115.714 6.35795ZM115.387 7.49911C116.86 7.49911 117.378 9.10219 117.378 11.7377H113.014C113.151 9.21087 113.887 7.49911 115.387 7.49911Z" fill="#4E443F"/>
<path d="M130.949 13.9657V11.8464H123.859V13.9657H130.949Z" fill="#4E443F"/>
<path d="M139.821 5.16243C139.821 3.74956 139.985 3.53219 141.785 3.342V2.20083H132.485V3.342C134.312 3.53219 134.476 3.74956 134.476 5.16243V18.3131C134.476 19.7259 134.312 19.9433 132.485 20.1335V21.2747H141.785V20.1335C139.985 19.9433 139.821 19.7259 139.821 18.3131V5.16243Z" fill="#4E443F"/>
<path d="M148.434 21.5464C152.115 21.5464 154.488 19.7531 154.488 16.5741C154.488 13.6125 152.715 12.4985 149.443 11.4117C147.643 10.7868 146.825 10.3249 146.825 9.1837C146.825 8.15121 147.615 7.49911 148.788 7.49911C150.697 7.49911 151.897 9.07502 152.224 10.8683H153.397V7.6078C152.224 6.84702 150.561 6.35795 148.706 6.35795C145.434 6.35795 143.088 8.0697 143.088 11.1128C143.088 13.8842 144.752 15.1613 147.834 16.1122C149.688 16.71 150.752 17.1719 150.752 18.5576C150.752 19.7803 149.715 20.4052 148.434 20.4052C146.306 20.4052 144.888 18.7206 144.343 16.4926H143.088L143.252 20.1607C144.425 21.003 146.17 21.5464 148.434 21.5464Z" fill="#4E443F"/>
<path d="M162.412 18.8565C161.049 18.8565 160.53 17.824 160.53 16.4383C160.53 14.8895 161.158 14.3733 162.112 14.0201L163.612 13.4495V18.4761C163.176 18.7206 162.849 18.8565 162.412 18.8565ZM168.576 11.0856C168.576 7.55346 166.285 6.35795 162.467 6.35795C159.167 6.35795 156.603 7.49911 156.603 9.97165C156.603 10.9498 157.149 11.6019 157.94 11.8736L160.967 11.466C160.83 10.8139 160.721 10.189 160.721 9.56409C160.721 8.28707 161.13 7.4176 162.194 7.4176C163.258 7.4176 163.612 8.25989 163.612 9.50975V12.2812L159.276 13.8027C157.34 14.482 155.676 15.4601 155.676 17.824C155.676 20.1607 157.285 21.4649 159.576 21.4649C161.594 21.4649 162.903 20.4052 163.694 19.264C164.103 20.7041 165.248 21.5464 166.83 21.5464C168.358 21.5464 169.53 20.9758 170.43 20.0791L170.239 19.3455C170.048 19.4271 169.694 19.5086 169.312 19.5086C168.657 19.5086 168.576 18.938 168.576 18.2859V11.0856Z" fill="#4E443F"/>
<path d="M171.84 2.82575V19.6716C173.613 21.0573 176.34 21.5464 178.822 21.5464C183.404 21.5464 186.976 18.6119 186.976 13.0419C186.976 8.58594 184.686 6.35795 181.467 6.35795C179.149 6.35795 177.649 7.77082 176.886 8.9935V0H176.04L170.34 1.24985V2.06497L171.84 2.82575ZM178.822 20.2693C177.377 20.2693 176.886 19.1825 176.886 17.4436V9.78145C177.377 9.4554 177.922 9.31955 178.495 9.31955C180.568 9.31955 181.849 10.977 181.849 14.5635C181.849 17.7696 180.786 20.2693 178.822 20.2693Z" fill="#4E443F"/>
<path d="M195.666 6.35795C191.739 6.35795 188.384 9.45541 188.384 14.2918C188.384 18.8565 191.439 21.5464 195.475 21.5464C198.911 21.5464 201.011 19.5629 201.748 16.5741L201.229 16.2481C200.193 17.6066 198.911 18.2315 197.166 18.2315C194.684 18.2315 192.884 16.2209 192.939 12.9876H201.639V12.3083C201.639 8.85765 199.62 6.35795 195.666 6.35795ZM195.339 7.49911C196.811 7.49911 197.33 9.10219 197.33 11.7377H192.966C193.102 9.21087 193.839 7.49911 195.339 7.49911Z" fill="#4E443F"/>
<path d="M209.124 0H208.278L202.578 1.24985V2.06497L204.078 2.82575V19.1553C204.078 20.0248 203.642 20.1335 202.551 20.215V21.2747H210.651V20.215C209.56 20.1335 209.124 20.0248 209.124 19.1553V0Z" fill="#4E443F"/>
<path d="M218.126 0H217.28L211.58 1.24985V2.06497L213.08 2.82575V19.1553C213.08 20.0248 212.644 20.1335 211.553 20.215V21.2747H219.653V20.215C218.562 20.1335 218.126 20.0248 218.126 19.1553V0Z" fill="#4E443F"/>
<path d="M227.918 6.35795C223.991 6.35795 220.637 9.45541 220.637 14.2918C220.637 18.8565 223.691 21.5464 227.727 21.5464C231.164 21.5464 233.264 19.5629 234 16.5741L233.482 16.2481C232.446 17.6066 231.164 18.2315 229.418 18.2315C226.937 18.2315 225.137 16.2209 225.191 12.9876H233.891V12.3083C233.891 8.85765 231.873 6.35795 227.918 6.35795ZM227.591 7.49911C229.064 7.49911 229.582 9.10219 229.582 11.7377H225.218C225.355 9.21087 226.091 7.49911 227.591 7.49911Z" fill="#4E443F"/>
<path d="M12.7088 42.332C12.8451 42.7395 12.9269 43.0656 12.9269 43.3373C12.9269 44.2611 12.1633 44.5328 10.7997 44.5871V45.7283H20.4268V44.5871C19.6359 44.4784 19.0904 44.2882 18.8177 43.5818L12.027 26.6001H6.32711L7.25436 28.8553L1.58178 43.5818C1.28179 44.3154 0.736345 44.4784 0 44.5871V45.7283H5.86349V44.5871C4.3908 44.5056 3.62718 44.2067 3.62718 43.3101C3.62718 43.0384 3.709 42.7123 3.84536 42.3048L4.77261 39.8323H11.727L12.7088 42.332ZM8.15434 30.8387L11.127 38.365H5.31805L8.15434 30.8387Z" fill="#4E443F"/>
<path d="M27.6208 24.4536H26.7754L21.0755 25.7035V26.5186L22.5755 27.2794V43.609C22.5755 44.4784 22.1391 44.5871 21.0483 44.6686V45.7283H29.1481V44.6686C28.0572 44.5871 27.6208 44.4784 27.6208 43.609V24.4536Z" fill="#4E443F"/>
<path d="M37.4682 38.4194V36.3001H30.3774V38.4194H37.4682Z" fill="#4E443F"/>
<path d="M49.6752 42.332C49.8115 42.7395 49.8933 43.0656 49.8933 43.3373C49.8933 44.2611 49.1297 44.5328 47.7661 44.5871V45.7283H57.3931V44.5871C56.6023 44.4784 56.0568 44.2882 55.7841 43.5818L48.9934 26.6001H43.2935L44.2208 28.8553L38.5482 43.5818C38.2482 44.3154 37.7027 44.4784 36.9664 44.5871V45.7283H42.8299V44.5871C41.3572 44.5056 40.5936 44.2067 40.5936 43.3101C40.5936 43.0384 40.6754 42.7123 40.8117 42.3048L41.739 39.8323H48.6934L49.6752 42.332ZM45.1207 30.8387L48.0934 38.365H42.2844L45.1207 30.8387Z" fill="#4E443F"/>
<path d="M73.6978 39.9138L71.4342 33.8547C71.3251 33.5286 71.2706 33.2841 71.2706 33.0667C71.2706 32.3875 71.816 32.2788 72.9614 32.1429V31.0833H64.8889V32.1429C65.6253 32.3603 65.9252 32.632 66.1434 33.2298L67.0707 35.648L65.0253 40.1855L62.4344 33.8547C62.2981 33.5015 62.2162 33.2026 62.2162 32.9852C62.2162 32.4962 62.5981 32.2788 63.498 32.1429V31.0833H55.3164V32.1429C56.2709 32.4418 56.4346 32.632 56.7073 33.2298L62.4344 45.837H64.0435L67.8616 37.4412L71.0797 45.837H72.716L78.0886 33.2298C78.334 32.632 78.5249 32.4418 79.4794 32.1429V31.0833H74.7614V32.1429C75.825 32.2788 76.3159 32.4418 76.3159 33.0124C76.3159 33.2298 76.2613 33.5286 76.125 33.8547L73.6978 39.9138Z" fill="#4E443F"/>
<path d="M85.896 43.3101C84.5324 43.3101 84.0143 42.2776 84.0143 40.8919C84.0143 39.3432 84.6415 38.8269 85.5961 38.4737L87.096 37.9031V42.9297C86.6597 43.1742 86.3324 43.3101 85.896 43.3101ZM92.0595 35.5393C92.0595 32.0071 89.7687 30.8116 85.9506 30.8116C82.6507 30.8116 80.0871 31.9527 80.0871 34.4253C80.0871 35.4034 80.6325 36.0555 81.4234 36.3272L84.4506 35.9197C84.3143 35.2676 84.2052 34.6426 84.2052 34.0177C84.2052 32.7407 84.6143 31.8712 85.6779 31.8712C86.7415 31.8712 87.096 32.7135 87.096 33.9634V36.7348L82.7598 38.2564C80.8234 38.9356 79.1599 39.9138 79.1599 42.2776C79.1599 44.6143 80.7689 45.9185 83.0597 45.9185C85.0779 45.9185 86.3869 44.8588 87.1778 43.7177C87.5869 45.1577 88.7323 46 90.3141 46C91.8413 46 93.014 45.4294 93.914 44.5328L93.7231 43.7992C93.5322 43.8807 93.1777 43.9622 92.7959 43.9622C92.1413 43.9622 92.0595 43.3916 92.0595 42.7395V35.5393Z" fill="#4E443F"/>
</svg>
