<svg width="107" height="98" viewBox="0 0 107 98" fill="none" xmlns="http://www.w3.org/2000/svg">
<g opacity="0.25">
<path d="M15.3131 98L33.688 98C42.1341 98 49 91.1274 49 82.6869L49 64.312C49 55.8726 42.1341 49 33.688 49L15.3131 49C14.2656 49 13.2428 49.1099 12.2503 49.3129L12.2503 36.7497C12.2503 23.2389 23.2389 12.2503 36.7497 12.2503L42.8754 12.2503C46.2624 12.2503 49 9.50595 49 6.12572C49 2.74436 46.2624 1.50253e-05 42.8754 1.47292e-05L36.7497 1.41937e-05C16.4829 1.24219e-05 1.47588e-05 16.4829 1.2987e-05 36.7497L8.97102e-06 82.6869C8.23313e-06 91.1274 6.86591 98 15.3131 98V98Z" fill="#E5B187"/>
<path d="M73.3131 98L91.688 98C100.134 98 107 91.1274 107 82.6869L107 64.312C107 55.8726 100.134 49 91.688 49L73.3131 49C72.2656 49 71.2428 49.1099 70.2503 49.3129L70.2503 36.7497C70.2503 23.2389 81.2389 12.2503 94.7497 12.2503L100.875 12.2503C104.262 12.2503 107 9.50595 107 6.12572C107 2.74436 104.262 1.50253e-05 100.875 1.47292e-05L94.7497 1.41937e-05C74.4829 1.24219e-05 58 16.4829 58 36.7497L58 82.6869C58 91.1274 64.8659 98 73.3131 98V98Z" fill="#E5B187"/>
</g>
</svg>
